<svg width="25" height="25" viewBox="0 0 25 25" fill="none" xmlns="http://www.w3.org/2000/svg">
<g clip-path="url(#clip0_17_1326)">
<path d="M9.63477 15.9033H15.6348M21.6348 8.90332H3.63477M16.6348 2.90332V5.90332M8.63477 2.90332V5.90332M8.43477 22.9033H16.8348C18.5149 22.9033 19.355 22.9033 19.9967 22.5763C20.5612 22.2887 21.0202 21.8298 21.3078 21.2653C21.6348 20.6236 21.6348 19.7835 21.6348 18.1033V9.70332C21.6348 8.02316 21.6348 7.18308 21.3078 6.54135C21.0202 5.97686 20.5612 5.51792 19.9967 5.2303C19.355 4.90332 18.5149 4.90332 16.8348 4.90332H8.43477C6.75461 4.90332 5.91453 4.90332 5.27279 5.2303C4.70831 5.51792 4.24937 5.97686 3.96175 6.54135C3.63477 7.18308 3.63477 8.02316 3.63477 9.70332V18.1033C3.63477 19.7835 3.63477 20.6236 3.96175 21.2653C4.24937 21.8298 4.70831 22.2887 5.27279 22.5763C5.91453 22.9033 6.75461 22.9033 8.43477 22.9033Z" stroke="#2B422E" stroke-width="2.2043" stroke-linecap="round" stroke-linejoin="round"/>
</g>
<defs>
<clipPath id="clip0_17_1326">
<rect width="24" height="24" fill="white" transform="translate(0.634766 0.90332)"/>
</clipPath>
</defs>
</svg>
