<svg width="104" height="108" viewBox="0 0 104 108" fill="none" xmlns="http://www.w3.org/2000/svg">
<path d="M69.1994 3.87562C107.079 19.7856 116.529 68.3756 83.7395 95.3756C42.6895 129.186 -13.3406 84.7356 3.26945 36.1156C11.7694 11.2356 44.0094 -6.70438 69.1994 3.87562Z" fill="#2B422E"/>
<path d="M64.6095 69.3658C65.1895 68.9258 65.5095 67.6058 66.2695 66.9358C68.9795 64.5558 71.4295 65.0458 70.2795 69.0458C68.3395 75.7758 53.6495 77.6558 47.9095 77.0258C43.7695 76.5758 33.1595 72.2658 33.5895 67.3858C34.1095 61.5058 38.7395 68.7258 40.3595 69.8658C46.8295 74.4358 58.3295 74.1358 64.6195 69.3558L64.6095 69.3658Z" fill="#FCFCFE"/>
<path d="M66.0695 50.1557C63.2295 47.3157 66.3395 41.4757 70.4195 43.4457C75.9395 46.1257 70.2595 54.3357 66.0695 50.1557Z" fill="#F8F9FE"/>
<path d="M38.0195 44.1961C40.8595 47.0361 37.7495 52.8761 33.6695 50.9061C28.1495 48.2261 33.8295 40.0161 38.0195 44.1961Z" fill="#F8F9FE"/>
</svg>
