<svg width="19" height="19" viewBox="0 0 19 19" fill="none" xmlns="http://www.w3.org/2000/svg">
<path d="M11.6072 4.00766C11.6072 3.59615 11.6072 3.3904 11.5272 3.23322C11.4567 3.09497 11.3443 2.98256 11.2061 2.91212C11.0489 2.83203 10.8431 2.83203 10.4316 2.83203H8.37427C7.96276 2.83203 7.75701 2.83203 7.59983 2.91212C7.46158 2.98256 7.34917 3.09497 7.27873 3.23322C7.19864 3.3904 7.19864 3.59615 7.19864 4.00766V6.06501C7.19864 6.47651 7.19864 6.68227 7.11856 6.83944C7.04811 6.9777 6.93571 7.0901 6.79745 7.16055C6.64028 7.24063 6.43452 7.24063 6.02301 7.24063H3.96567C3.55416 7.24063 3.3484 7.24063 3.19123 7.32072C3.05297 7.39116 2.94057 7.50357 2.87012 7.64182C2.79004 7.799 2.79004 8.00475 2.79004 8.41626V10.4736C2.79004 10.8851 2.79004 11.0909 2.87012 11.248C2.94057 11.3863 3.05297 11.4987 3.19123 11.5691C3.3484 11.6492 3.55416 11.6492 3.96567 11.6492H6.02301C6.43452 11.6492 6.64028 11.6492 6.79745 11.7293C6.93571 11.7998 7.04811 11.9122 7.11856 12.0504C7.19864 12.2076 7.19864 12.4134 7.19864 12.8249V14.8822C7.19864 15.2937 7.19864 15.4995 7.27873 15.6566C7.34917 15.7949 7.46158 15.9073 7.59983 15.9778C7.75701 16.0578 7.96276 16.0578 8.37427 16.0578H10.4316C10.8431 16.0578 11.0489 16.0578 11.2061 15.9778C11.3443 15.9073 11.4567 15.7949 11.5272 15.6566C11.6072 15.4995 11.6072 15.2937 11.6072 14.8822V12.8249C11.6072 12.4134 11.6072 12.2076 11.6873 12.0504C11.7578 11.9122 11.8702 11.7998 12.0084 11.7293C12.1656 11.6492 12.3714 11.6492 12.7829 11.6492H14.8402C15.2517 11.6492 15.4575 11.6492 15.6147 11.5691C15.7529 11.4987 15.8653 11.3863 15.9358 11.248C16.0158 11.0909 16.0158 10.8851 16.0158 10.4736V8.41626C16.0158 8.00475 16.0158 7.799 15.9358 7.64182C15.8653 7.50357 15.7529 7.39116 15.6147 7.32072C15.4575 7.24063 15.2517 7.24063 14.8402 7.24063L12.7829 7.24063C12.3714 7.24063 12.1656 7.24063 12.0084 7.16055C11.8702 7.0901 11.7578 6.9777 11.6873 6.83944C11.6072 6.68227 11.6072 6.47651 11.6072 6.06501V4.00766Z" stroke="#2B422E" stroke-width="2.2043" stroke-linecap="round" stroke-linejoin="round"/>
</svg>
