<svg width="74" height="76" viewBox="0 0 74 76" fill="none" xmlns="http://www.w3.org/2000/svg">
<path d="M58.7767 66.3833L58.7766 66.3834C44.7276 77.9546 28.1751 76.1529 16.4727 67.2616C4.7418 58.3488 -2.00037 42.389 3.69572 25.7157C6.58428 17.2607 13.5527 9.89444 22.0267 5.56294C30.4965 1.23357 40.2781 0.0292082 48.7681 3.59507C74.8592 14.5536 81.2457 47.8818 58.7767 66.3833Z" stroke="#2B422E" stroke-width="3"/>
<path d="M28.1714 51.4804C27.7573 51.7946 27.5288 52.737 26.9862 53.2154C25.0513 54.9147 23.3021 54.5648 24.1232 51.7089C25.5083 46.9038 35.9966 45.5615 40.0949 46.0113C43.0507 46.3326 50.6261 49.4099 50.3191 52.8941C49.9478 57.0923 46.6421 51.9374 45.4854 51.1234C40.866 47.8605 32.6552 48.0747 28.1643 51.4875L28.1714 51.4804Z" fill="#2B422E"/>
<path d="M47.1144 35.2555C45.0867 33.2278 47.3072 29.0582 50.2202 30.4647C54.1614 32.3782 50.106 38.2399 47.1144 35.2555Z" fill="#2B422E"/>
<path d="M27.0873 30.9997C29.115 33.0274 26.8945 37.197 23.9815 35.7904C20.0403 33.877 24.0957 28.0152 27.0873 30.9997Z" fill="#2B422E"/>
</svg>
