<svg width="74" height="76" viewBox="0 0 74 76" fill="none" xmlns="http://www.w3.org/2000/svg">
<path d="M58.639 66.3833L58.6389 66.3834C44.5899 77.9546 28.0374 76.1529 16.335 67.2616C4.6041 58.3488 -2.13806 42.389 3.55802 25.7157C6.44659 17.2607 13.415 9.89444 21.889 5.56294C30.3588 1.23357 40.1404 0.0292082 48.6304 3.59507C74.7215 14.5536 81.108 47.8818 58.639 66.3833Z" stroke="black" stroke-width="3"/>
<path d="M45.9341 48.9708C46.3482 48.6566 46.5766 47.7142 47.1193 47.2358C49.0541 45.5365 50.8034 45.8864 49.9823 48.7423C48.5972 53.5474 38.1088 54.8897 34.0106 54.4398C31.0547 54.1186 23.4794 51.0413 23.7864 47.5571C24.1577 43.3589 27.4634 48.5138 28.6201 49.3277C33.2395 52.5906 41.4503 52.3765 45.9412 48.9636L45.9341 48.9708Z" fill="#2B422E"/>
<path d="M46.9767 35.2555C44.949 33.2278 47.1695 29.0582 50.0826 30.4647C54.0237 32.3782 49.9683 38.2399 46.9767 35.2555Z" fill="#2B422E"/>
<path d="M26.9496 30.9997C28.9773 33.0274 26.7568 37.197 23.8438 35.7904C19.9026 33.877 23.958 28.0152 26.9496 30.9997Z" fill="#2B422E"/>
</svg>
